# File created by Blade
# Date/Time:  Tue Apr 07 20:22:14 2015
# Frame Rate: 120.000 fps
#------------------------------------------------------
:FULLY-SPECIFIED
:DEGREES
931
root 4.555785 33.950283 -8.796992 29.628101 -27.196419 -28.001914
Spine -15.034343 15.195698 15.955890
Head 11.335215 1.665764 8.000473
LeftShoulder -24.369403 39.643702 22.763999
LeftArm 47.216284 -61.070708 -55.571019
LeftForeArm 4.016879 -0.000000 4.233643
LeftHand 10.700502 0.000000 8.852425
LeftHandThumb1 -26.253704 0.000000 33.147579
RightShoulder -2.523553 8.057227 -26.262372
RightArm 6.670711 15.084418 44.819051
RightForeArm -3.931340 0.000000 3.992775
RightHand 1.757395 -0.000000 4.762405
RightHandThumb1 -24.326973 -0.000000 -32.862282
LeftUpLeg -14.152330 -8.501001 21.074534
LeftLeg 7.100544 -0.000000 -0.000000
LeftFoot -6.985043 22.550148 -4.761838
LeftToeBase -13.513142 -0.000000 0.000000
RightUpLeg -24.719573 -1.374488 -25.128426
RightLeg 19.947458 -0.000000 -0.000000
RightFoot 31.660168 -9.170578 3.214728
RightToeBase 31.034230 -0.000000 -0.000000
932
root 4.523535 33.918963 -8.771469 29.304894 -27.349875 -27.616475
Spine -15.020289 15.272227 15.724064
Head 11.768461 1.723452 7.734268
LeftShoulder -24.388870 39.510404 22.808159
LeftArm 47.311979 -61.117431 -55.425320
LeftForeArm 3.950622 -0.000000 4.175165
LeftHand 10.667896 -0.000000 9.032661
LeftHandThumb1 -26.253704 0.000000 33.147579
RightShoulder -2.507519 8.005104 -26.445416
RightArm 6.622493 14.975594 44.587578
RightForeArm -4.103159 -0.000000 4.138032
RightHand 1.680883 -0.000000 4.364238
RightHandThumb1 -24.326973 -0.000000 -32.862282
LeftUpLeg -14.010193 -8.349125 20.649933
LeftLeg 7.262646 -0.000000 -0.000000
LeftFoot -7.227269 22.236917 -4.881161
LeftToeBase -13.835536 -0.000000 0.000000
RightUpLeg -24.603659 -1.501697 -23.374477
RightLeg 19.724959 -0.000000 -0.000000
RightFoot 28.678583 -8.166222 4.066933
RightToeBase 30.250524 -0.000000 -0.000000
933
root 4.490754 33.892139 -8.749853 28.991878 -27.490861 -27.212966
Spine -15.011099 15.308137 15.468083
Head 12.163256 1.808891 7.540969
LeftShoulder -24.474115 39.423805 22.825323
LeftArm 47.530712 -61.167857 -55.423238
LeftForeArm 3.940832 -0.000000 4.147373
LeftHand 10.644298 -0.000000 9.073901
LeftHandThumb1 -26.253704 0.000000 33.147579
RightShoulder -2.460416 8.008214 -26.590168
RightArm 6.519443 14.879771 44.340879
RightForeArm -4.262431 0.000000 4.303882
RightHand 1.819309 -0.000000 4.131236
RightHandThumb1 -24.326973 -0.000000 -32.862282
LeftUpLeg -13.892597 -8.256043 20.245483
LeftLeg 7.388174 -0.000000 -0.000000
LeftFoot -7.264359 22.019668 -4.825926
LeftToeBase -14.565509 -0.000000 0.000000
RightUpLeg -24.523002 -1.568699 -21.635608
RightLeg 19.547847 -0.000000 -0.000000
RightFoot 25.629151 -7.204872 4.961827
RightToeBase 28.605155 -0.000000 -0.000000
934
root 4.456225 33.871652 -8.735410 28.733123 -27.612558 -26.851084
Spine -15.029096 15.426387 15.218200
Head 12.502707 1.880901 7.388566
LeftShoulder -24.410833 39.259934 22.961863
LeftArm 47.656570 -61.220985 -55.440204
LeftForeArm 3.935199 -0.000000 4.199100
LeftHand 10.528294 -0.000000 9.272888
LeftHandThumb1 -26.253704 0.000000 33.147579
RightShoulder -2.514113 7.993184 -26.746510
RightArm 6.455456 14.861063 44.158268
RightForeArm -4.558644 0.000000 4.467190
RightHand 2.063760 -0.000000 3.775060
RightHandThumb1 -24.326973 -0.000000 -32.862282
LeftUpLeg -13.848018 -8.096757 19.900523
LeftLeg 7.606039 -0.000000 -0.000000
LeftFoot -7.570076 21.647425 -5.131660
LeftToeBase -14.576836 -0.000000 0.000000
RightUpLeg -24.517556 -1.496760 -19.888372
RightLeg 19.460425 -0.000000 -0.000000
RightFoot 22.747168 -6.351772 5.806106
RightToeBase 27.029998 -0.000000 -0.000000
935
root 4.420817 33.854427 -8.723874 28.435975 -27.671398 -26.440303
Spine -15.023561 15.450731 14.959766
Head 12.785072 1.929333 7.273311
LeftShoulder -24.400040 39.204963 23.011021
LeftArm 47.833033 -61.332412 -55.497525
LeftForeArm 3.988746 0.000000 4.270567
LeftHand 10.558869 -0.000000 9.063091
LeftHandThumb1 -26.253704 0.000000 33.147579
RightShoulder -2.541218 7.978446 -26.874643
RightArm 6.381462 14.775041 43.956738
RightForeArm -4.722593 -0.000000 4.625540
RightHand 2.242165 -0.000000 3.388570
RightHandThumb1 -24.326973 -0.000000 -32.862282
LeftUpLeg -13.834681 -8.042530 19.551356
LeftLeg 7.824621 -0.000000 -0.000000
LeftFoot -7.715410 21.392735 -5.244058
LeftToeBase -14.662248 -0.000000 0.000000
RightUpLeg -24.472904 -1.415444 -18.157562
RightLeg 19.345686 -0.000000 -0.000000
RightFoot 20.148195 -5.686322 7.007630
RightToeBase 25.642827 -0.000000 -0.000000
936
root 4.380558 33.840803 -8.720261 28.169872 -27.673811 -26.044418
Spine -15.026859 15.427031 14.716204
Head 12.987559 2.002673 7.183101
LeftShoulder -24.320807 39.102576 23.114797
LeftArm 47.474458 -61.323060 -55.093888
LeftForeArm 3.821983 -0.000000 4.448719
LeftHand 10.529756 -0.000000 8.905649
LeftHandThumb1 -26.253704 0.000000 33.147579
RightShoulder -2.618668 8.003533 -27.040251
RightArm 6.335033 14.713963 43.856451
RightForeArm -4.842152 -0.000000 4.816948
RightHand 2.219054 -0.000000 2.998883
RightHandThumb1 -24.326973 -0.000000 -32.862282
LeftUpLeg -13.862228 -8.069999 19.271287
LeftLeg 8.012526 -0.000000 -0.000000
LeftFoot -7.772896 21.200893 -5.329404
LeftToeBase -14.926203 -0.000000 0.000000
RightUpLeg -24.458908 -1.266940 -16.403739
RightLeg 19.288223 -0.000000 -0.000000
RightFoot 17.755491 -5.339439 8.684688
RightToeBase 24.010312 -0.000000 -0.000000
937
root 4.333536 33.830733 -8.721675 27.940470 -27.652054 -25.692784
Spine -15.036816 15.416747 14.493866
Head 13.131133 2.065182 7.139926
LeftShoulder -24.218818 39.015337 23.223244
LeftArm 47.164946 -61.312911 -54.656104
LeftForeArm 3.697131 -0.000000 4.468087
LeftHand 10.502735 -0.000000 8.731893
LeftHandThumb1 -26.253704 0.000000 33.147579
RightShoulder -2.732047 7.988754 -27.198201
RightArm 6.345715 14.807056 43.813729
RightForeArm -5.067747 -0.000000 4.980962
RightHand 2.375023 -0.000000 2.601272
RightHandThumb1 -24.326973 -0.000000 -32.862282
LeftUpLeg -13.904461 -8.059796 19.038007
LeftLeg 8.179367 -0.000000 -0.000000
LeftFoot -7.780581 21.063451 -5.364212
LeftToeBase -15.404908 -0.000000 0.000000
RightUpLeg -24.458911 -0.979894 -14.652248
RightLeg 19.252077 -0.000000 -0.000000
RightFoot 15.480423 -4.844289 10.807714
RightToeBase 22.368783 -0.000000 -0.000000
